<svg width="64" height="64" viewBox="0 0 64 64" fill="none" xmlns="http://www.w3.org/2000/svg">
<g clip-path="url(#clip0_15_3)">
<path d="M32 64C46.0222 64 53.8174 64 58.9087 58.9087C64 53.8174 64 46.0222 64 32C64 17.9778 64 10.1826 58.9087 5.09131C53.8174 -9.53674e-07 46.0222 0 32 0C17.9778 0 10.1826 -9.53674e-07 5.09131 5.09131C-9.53674e-07 10.1826 0 17.9778 0 32C0 46.0222 -9.53674e-07 53.8174 5.09131 58.9087C10.1826 64 17.9778 64 32 64Z" fill="url(#paint0_linear_15_3)"/>
<rect x="13" y="20" width="37" height="24" rx="5" fill="url(#paint1_linear_15_3)"/>
<rect x="13" y="20" width="37" height="24" rx="5" stroke="url(#paint2_linear_15_3)" stroke-width="2"/>
<path d="M19 38L23.5796 25H26.4376L31 38H28.495L27.4706 34.894H22.495L21.4448 38H19ZM23.132 33.0007H26.8508L26.2482 31.1685C26.0588 30.5694 25.8637 29.9441 25.6628 29.2926C25.4677 28.6412 25.2496 27.9054 25.0086 27.0852C24.7676 27.9054 24.5466 28.6412 24.3458 29.2926C24.1449 29.9441 23.9469 30.5694 23.7518 31.1685L23.132 33.0007Z" fill="white" stroke="white" stroke-width="0.34"/>
<path d="M40 14V50H38V14H40Z" fill="white"/>
<path d="M45 50L33 50" stroke="url(#paint3_linear_15_3)" stroke-width="1.6" stroke-linecap="round"/>
<path d="M45 14H33" stroke="url(#paint4_linear_15_3)" stroke-width="1.6" stroke-linecap="round"/>
</g>
<defs>
<linearGradient id="paint0_linear_15_3" x1="0" y1="0" x2="64" y2="64" gradientUnits="userSpaceOnUse">
<stop stop-color="#4361EE"/>
<stop offset="1" stop-color="#3A0CA3"/>
</linearGradient>
<linearGradient id="paint1_linear_15_3" x1="14.5" y1="20" x2="50.182" y2="41.1643" gradientUnits="userSpaceOnUse">
<stop stop-color="#F72585"/>
<stop offset="0.480769" stop-color="#F72585"/>
<stop offset="1" stop-color="#F72585"/>
</linearGradient>
<linearGradient id="paint2_linear_15_3" x1="19.8714" y1="20" x2="43.8596" y2="43.2457" gradientUnits="userSpaceOnUse">
<stop stop-color="white"/>
<stop offset="1" stop-color="white"/>
</linearGradient>
<linearGradient id="paint3_linear_15_3" x1="39.25" y1="51.5" x2="39.25" y2="49.5" gradientUnits="userSpaceOnUse">
<stop stop-color="white"/>
<stop offset="1" stop-color="white"/>
</linearGradient>
<linearGradient id="paint4_linear_15_3" x1="39.25" y1="15.5" x2="39.25" y2="13.5" gradientUnits="userSpaceOnUse">
<stop stop-color="white"/>
<stop offset="1" stop-color="white"/>
</linearGradient>
<clipPath id="clip0_15_3">
<rect width="64" height="64" fill="white"/>
</clipPath>
</defs>
</svg>
